<mxfile host="app.diagrams.net" modified="2024-05-08T10:10:33.080Z" agent="Mozilla/5.0 (X11; Linux x86_64) AppleWebKit/537.36 (KHTML, like Gecko) Chrome/124.0.0.0 Safari/537.36" version="24.3.1" etag="yIasKJmXIE-O17AI_z0T" type="github">
  <diagram name="Page-1" id="Effebim_B4KUX__5uh5J">
    <mxGraphModel>
      <root>
        <mxCell id="0" />
        <mxCell id="1" parent="0" />
      </root>
    </mxGraphModel>
  </diagram>
</mxfile>
